<svg class="icon-background" viewBox="0 0 28 28">
  <path d="M10.5 7.875c0-2.416 1.959-4.375 4.375-4.375s4.375 1.959 4.375 4.375c0 2.416-1.959 4.375-4.375 4.375s-4.375-1.959-4.375-4.375zM0 7.875c0-2.416 1.959-4.375 4.375-4.375s4.375 1.959 4.375 4.375c0 2.416-1.959 4.375-4.375 4.375s-4.375-1.959-4.375-4.375zM21 16.625v-2.625c0-0.963-0.787-1.75-1.75-1.75h-17.5c-0.963 0-1.75 0.787-1.75 1.75v8.75c0 0.963 0.787 1.75 1.75 1.75h17.5c0.963 0 1.75-0.787 1.75-1.75v-2.625l7 4.375v-12.25l-7 4.375zM17.5 21h-14v-5.25h14v5.25z"></path>
</svg>