<?xml version="1.0" encoding="UTF-8"?>
<svg id="ci-svg" width="16" height="16" version="1.1" viewBox="0 0 4.23 4.23" xmlns="http://www.w3.org/2000/svg"><g transform="translate(-58.7 -195)" font-family="sans-serif" word-spacing="0px"><g transform="scale(.998 1)" style="stroke-width:.0705" aria-label="Na"><path transform="matrix(.265 0 0 .264 58.8 195)" d="m13.8-0.0723v1.73h-1.72v0.5h1.72v1.73h0.49v-1.73h1.72v-0.5h-1.72v-1.73h-0.49zm-13.8 0.0469v0.559h1.04v6.68h-1.04v0.553h2.73v-0.553h-1.04v-5.86l4.97 6.56h0.629v-7.38h1.04v-0.559h-2.72v0.559h1.04v5.59l-4.65-6.15h-1.99zm10.4 2.09c-0.298 0-0.605 0.0364-0.92 0.109-0.312 0.0694-0.634 0.174-0.967 0.316v1.12h0.492c0.0554-0.341 0.197-0.599 0.422-0.773 0.225-0.174 0.529-0.26 0.91-0.26 0.461 0 0.817 0.117 1.07 0.35 0.256 0.23 0.385 0.554 0.385 0.975v0.381h-1.34c-0.752 0-1.33 0.158-1.75 0.475-0.412 0.316-0.617 0.762-0.617 1.34 0 0.556 0.179 0.999 0.539 1.33 0.36 0.327 0.848 0.49 1.46 0.49 0.371 0 0.694-0.0619 0.971-0.184 0.277-0.122 0.523-0.311 0.734-0.568v0.6h1.81v-0.553h-0.852v-2.91c0-0.727-0.2-1.28-0.602-1.66-0.398-0.383-0.98-0.572-1.75-0.572zm0.16 2.78h1.23v1.17c0 0.396-0.123 0.718-0.369 0.965-0.243 0.247-0.564 0.371-0.963 0.371-0.402 0-0.719-0.114-0.955-0.34-0.236-0.226-0.354-0.532-0.354-0.918 0-0.424 0.116-0.738 0.348-0.943 0.232-0.205 0.586-0.309 1.06-0.309zm-7.6 3.07v0.574h1.02v6.87h-1.02v0.568h3.12v-0.568h-1.02v-3.24l3.79 3.8h1.85v-0.568h-0.908l-3.83-3.85 3.43-3.02h0.898v-0.574h-2.65v0.574h0.865l-3.44 3.03v-3.03h1.02v-0.574h-3.12zm8.41 0.0625v1.73h-1.72v0.5h1.72v1.73h0.492v-1.73h1.72v-0.5h-1.72v-1.73h-0.492z" style="fill:#fff;stroke-width:.267"/>
</g></g></svg>
