<?xml version="1.0" encoding="UTF-8"?>
<!-- Created with Inkscape (http://www.inkscape.org/) -->
<svg width="144.57" height="385.57" version="1.0" xmlns="http://www.w3.org/2000/svg" xmlns:cc="http://creativecommons.org/ns#" xmlns:dc="http://purl.org/dc/elements/1.1/" xmlns:rdf="http://www.w3.org/1999/02/22-rdf-syntax-ns#" style="fill:gray; opacity:0.15; stroke:none">
 <path d="m19.234 29.847c-10.608 7.0383-20.212 21.344-15.519 39.579 3.9239 15.251 23.887 28.347 40.128 34.649-7.1548-21.929-4.6418-17.727-6.5294-26.044-6.1487-2.939-10.54-6.1818-12.125-10.413-1.7786-4.7445-0.73987-10.896 3.6107-13.888 0.71082-0.4895 1.5082-0.87521 2.3992-1.1767 5.8304-0.51404 11.098 3.5348 15.942 6.2552 2.8822 1.1894 5.8966 2.1187 8.87 2.33 2.2389 0.15932 4.4719-0.05743 6.582-0.93082 3.9876-1.6498 4.0675-1.9462 2.3034-8.3766 4.264-0.76332 8.6286 2.3403 6.1737-8.2071-1.3887-5.9652-9.1697-15.958-25.603-18.673-9.2705-1.8721-18.086 0.57721-26.233 4.8962zm40.77 56.832c0.14943 1.1494 6.4153 24.175 7.2255 25.983 7.5915 4.1048 14.72 10.659 17.915 22.305 4.1535 15.14 0.09326 24.608-5.7593 34.05-5.0417 7.5453-9.6658 15.333-13.948 23.334-8.9104 16.93-15.503 34.282-10.057 52.047 5.3059 17.307 20.098 22.184 34.998 25.752-3.3669-10.398-3.6297-11.124-6.926-21.82-6.274-3.2561-10.284-6.8149-11.617-12.108-1.6142-6.4166-0.51555-13.7 1.9307-21.074 2.9073-8.3646 7.2541-16.104 11.511-23.832 2.3343-3.9212 4.7929-7.7668 7.2484-11.613 8.8219-13.809 15.952-34.049 10.767-54.186-6.0118-23.338-26.147-32.69-43.287-38.838zm44.578 170.4c0.71203 2.2363 3.7071 10.993 6.0384 18.467 26.465 9.018 18.292 32.758 9.3412 51.294-2.0169 4.1427-4.8803 7.789-7.6927 11.411-9.0853 11.682-20.951 20.552-33.653 27.93 16.351-6.8118 27.423-14.853 35.26-22.311 3.2445-2.5848 5.739-5.7599 8.3021-8.953 3.6849-4.4992 6.2448-8.3909 8.277-11.052 6.2828-8.2326 15.282-25.516 10.005-37.709-7.7223-17.888-21.344-23.352-35.877-29.075z" fill="none" stroke="#000" stroke-linecap="round" stroke-linejoin="round" stroke-width="5"/>
 <path d="m59.998 86.672c0.14943 1.1494 6.414 24.181 7.2243 25.989 0.81023 1.8081 1.6036 3.6228 2.1002 5.4858 0.78738 2.9456 0.22685 6.7308 0.77338 9.5507 1.8743 9.6552 4.1061 3.3708 6.0345 8.5138 1.5199 4.0585-1.1047 7.2786-0.03712 10.18 3.1266 8.4976 2.513 14.799 3.2512 22.294l-14.029 23.029c-1.3662-9.4513-5.7414-14.184-9.3573-17.836-5.0673-5.1167-4.8557-10.121-8.6266-15.124-4.1643-5.522-7.2379-8.5912 0.73736-13.626 4.1104 0.22658 4.926 5.2519 8.6775 4.9413 4.2154-2.3728-5.7389-24.063-12.894-45.993-7.1548-21.929-4.6529-17.735-6.5406-26.052s-5.1003-16.436-8.4984-24.287l9.4e-5 0.0041c8.3968-5.1679 18.119 8.58 27.215 7.4066 1.809 7.2062 2.8366 14.251 3.5283 22.072 0.10198 1.1541 0.29114 2.301 0.44057 3.4504zm25.365 104.49c-0.03149 0.0525-0.05597 0.101-0.08747 0.15361-2.5827 4.3136-9.0051 16.342-11.476 23.725 3.0919 11.029 7.0049 24.702 9.6512 33.289 3.2963 10.696 3.5591 11.422 6.926 21.82 3.3669 10.398 6.8439 20.877 10.466 31.769 4.0788 12.267 7.9819 24.388 11.426 36.334 2.7841-3.5797 5.6152-7.1082 7.6927-11.411-2.4017-9.6691-3.8087-19.245-4.5671-29.758-0.47738-6.6424-2.4427-14.062-4.774-21.536-2.3313-7.4735-5.3264-16.23-6.0384-18.467s-1.3792-4.4367-1.9531-6.5284c-2.3732-8.6504-3.705-13.654-2.8802-21.601 0.48629-4.6908 5.1463-16.038-4.4659-15.334-0.56103 1.9955-2.1601 3.27-2.6096 5.2526-3.6819-8.8637-5.2127-18.368-7.3103-27.71zm36.814 143.76c-3.685 4.4992-0.46509 1.4948-8.3021 8.953 3.6786 13.344 6.661 26.434 8.4212 39.2 9.8159-16.116 9.5251-20.108 1.9929-41.636-0.77065-2.2005-1.4561-4.3682-2.112-6.5172zm-76.705-309.98c-0.92517-6.6961 1.5403-15.289-2.0557-21.316-4.6775-3.8092-8.1062 3.2038-11.728 3.2174-7.1407 0.029255-6.5777-4.7033-14.078-3.8663-6.4825 0.72386-8.3589 0.6652-2.9028 14.626 1.6361 4.1873 3.0829 8.2286 4.522 12.235 3.3169-2.201 6.7303-3.7098 9.8376-4.3767 6.1636-1.3228 11.606-1.3124 16.404-0.51953z" fill="none" stroke="#000" stroke-linecap="round" stroke-linejoin="round" stroke-width="5"/>
 <ellipse id="eye" transform="rotate(-15.341)" cx="39.34" cy="49.497" rx="4.12" ry="4.35"/>
</svg>
