<?xml version="1.0" encoding="UTF-8"?>
<!-- Created with Inkscape (http://www.inkscape.org/) -->
<svg width="83.133mm" height="83.11mm" version="1.1" viewBox="0 0 83.133 83.11" xmlns="http://www.w3.org/2000/svg" xmlns:cc="http://creativecommons.org/ns#" xmlns:dc="http://purl.org/dc/elements/1.1/" xmlns:rdf="http://www.w3.org/1999/02/22-rdf-syntax-ns#">
 <metadata>
  <rdf:RDF>
   <cc:Work rdf:about="">
    <dc:format>image/svg+xml</dc:format>
    <dc:type rdf:resource="http://purl.org/dc/dcmitype/StillImage"/>
    <dc:title/>
   </cc:Work>
  </rdf:RDF>
 </metadata>
 <g transform="translate(-47.647 -133.9)">
  <path d="m123.35 170.48a29.69 29.045 0 0 1 0.95521 29.645 29.69 29.045 0 0 1-26.15 15.009 29.69 29.045 0 0 1-25.986-15.279l26.144-13.765z" fill="#fff"/>
  <path transform="matrix(.26458 0 0 .26458 47.647 133.9)" d="m219.68 3.4492c-18.283 0.26778-35.572 10.577-49.332 26.717-9.2729 10.876-17.165 24.517-23.113 40.158-11.368-15.039-24.519-26.863-38.346-34.715-21.648-12.294-45.598-14.892-65.639-3.0215-20.041 11.871-31.318 35.333-33.994 62.035-2.6757 26.702 2.8803 57.263 16.941 86.164 14.061 28.901 34.071 50.89 55.719 63.184 8.5152 4.8358 17.389 8.1637 26.24 9.709 18.991 27.28 50.443 43.609 84.078 43.65 56.346-1e-5 102.02-44.886 102.03-100.26-0.0398-14.62-3.3329-29.054-9.6484-42.291 1.2712-5.3752 2.3407-10.903 3.168-16.578 4.6802-32.109 1.1208-62.79-8.8691-87.012-9.99-24.222-26.985-42.57-48.988-46.832-3.438-0.66587-6.8564-0.9617-10.242-0.91211zm0.77149 15.203c2.4448-0.04004 4.8797 0.17089 7.2949 0.63867 15.458 2.9938 28.737 16.242 37.398 37.242 8.661 21 12.141 49.161 7.8203 78.803-0.0213 0.1459-0.0487 0.28789-0.0703 0.43359-12.67-16.103-30.028-28.035-49.766-34.209l9.4902-64.693-15.746-2.3105-9.3144 63.523c-5.0684-0.79946-10.191-1.2219-15.324-1.2637-9.0837 6e-3 -18.126 1.2041-26.887 3.5625-0.24953-0.52546-0.48119-1.0537-0.73633-1.5781-2.1135-4.3442-4.3763-8.5125-6.7441-12.535 5.6867-18.528 14.137-34.315 23.984-45.865 11.93-13.993 25.397-21.532 38.6-21.748zm-149.52 22.352c9.617-0.02191 19.954 2.9969 30.422 8.9414 31.006 17.833 46.301 55.58 46.301 55.58s-10.696 6.1133-10.858 7.4008c-11.343 7.2096-21.116 16.561-28.752 27.512l-37.875-57.131-13.266 8.793 42.359 63.889c-5.9404 12.912-9.0278 26.915-9.0586 41.086 0.0017 12.458 2.3663 24.807 6.9727 36.414-2.5649-1.1106-5.1448-2.3829-7.7344-3.8535-18.609-10.568-36.953-30.381-49.811-56.809-12.858-26.427-17.691-54.252-15.391-77.205 2.3-22.953 11.363-40.423 25.834-48.994 6.331-3.75 13.376-5.606 20.855-5.623z" color="#000000" color-rendering="auto" dominant-baseline="auto" image-rendering="auto" shape-rendering="auto" solid-color="#000000" style="font-feature-settings:normal;font-variant-alternates:normal;font-variant-caps:normal;font-variant-ligatures:normal;font-variant-numeric:normal;font-variant-position:normal;isolation:auto;mix-blend-mode:normal;shape-padding:0;text-decoration-color:#000000;text-decoration-line:none;text-decoration-style:solid;text-indent:0;text-orientation:mixed;text-transform:none;white-space:normal"/>
 </g>
</svg>
