<svg aria-hidden="true" style="position: absolute; width: 0; height: 0; overflow: hidden;" version="1.1" xmlns="http://www.w3.org/2000/svg" xmlns:xlink="http://www.w3.org/1999/xlink">
<defs>
<symbol id="icon-home" viewBox="0 0 32 32">
<title>home</title>
<path d="M32 18.451l-16-12.42-16 12.42v-5.064l16-12.42 16 12.42zM28 18v12h-8v-8h-8v8h-8v-12l12-9z"></path>
</symbol>
<symbol id="icon-folder-open" viewBox="0 0 32 32">
<title>folder-open</title>
<path d="M26 30l6-16h-26l-6 16zM4 12l-4 18v-26h9l4 4h13v4z"></path>
</symbol>
<symbol id="icon-clock" viewBox="0 0 32 32">
<title>clock</title>
<path d="M20.586 23.414l-6.586-6.586v-8.828h4v7.172l5.414 5.414zM16 0c-8.837 0-16 7.163-16 16s7.163 16 16 16 16-7.163 16-16-7.163-16-16-16zM16 28c-6.627 0-12-5.373-12-12s5.373-12 12-12c6.627 0 12 5.373 12 12s-5.373 12-12 12z"></path>
</symbol>
<symbol id="icon-calendar" viewBox="0 0 32 32">
<title>calendar</title>
<path d="M10 12h4v4h-4zM16 12h4v4h-4zM22 12h4v4h-4zM4 24h4v4h-4zM10 24h4v4h-4zM16 24h4v4h-4zM10 18h4v4h-4zM16 18h4v4h-4zM22 18h4v4h-4zM4 18h4v4h-4zM26 0v2h-4v-2h-14v2h-4v-2h-4v32h30v-32h-4zM28 30h-26v-22h26v22z"></path>
</symbol>
<symbol id="icon-display" viewBox="0 0 32 32">
<title>display</title>
<path d="M0 2v20h32v-20h-32zM30 20h-28v-16h28v16zM21 24h-10l-1 4-2 2h16l-2-2z"></path>
</symbol>
<symbol id="icon-arrow-left" viewBox="0 0 32 32">
<title>arrow-left</title>
<path d="M1 16l15 15v-9h16v-12h-16v-9z"></path>
</symbol>
<symbol id="icon-twitter" viewBox="0 0 32 32">
<title>twitter</title>
<path d="M32 7.075c-1.175 0.525-2.444 0.875-3.769 1.031 1.356-0.813 2.394-2.1 2.887-3.631-1.269 0.75-2.675 1.3-4.169 1.594-1.2-1.275-2.906-2.069-4.794-2.069-3.625 0-6.563 2.938-6.563 6.563 0 0.512 0.056 1.012 0.169 1.494-5.456-0.275-10.294-2.888-13.531-6.862-0.563 0.969-0.887 2.1-0.887 3.3 0 2.275 1.156 4.287 2.919 5.463-1.075-0.031-2.087-0.331-2.975-0.819 0 0.025 0 0.056 0 0.081 0 3.181 2.263 5.838 5.269 6.437-0.55 0.15-1.131 0.231-1.731 0.231-0.425 0-0.831-0.044-1.237-0.119 0.838 2.606 3.263 4.506 6.131 4.563-2.25 1.762-5.075 2.813-8.156 2.813-0.531 0-1.050-0.031-1.569-0.094 2.913 1.869 6.362 2.95 10.069 2.95 12.075 0 18.681-10.006 18.681-18.681 0-0.287-0.006-0.569-0.019-0.85 1.281-0.919 2.394-2.075 3.275-3.394z"></path>
</symbol>
<symbol id="icon-rss" viewBox="0 0 32 32">
<title>rss</title>
<path d="M4.259 23.467c-2.35 0-4.259 1.917-4.259 4.252 0 2.349 1.909 4.244 4.259 4.244 2.358 0 4.265-1.895 4.265-4.244-0-2.336-1.907-4.252-4.265-4.252zM0.005 10.873v6.133c3.993 0 7.749 1.562 10.577 4.391 2.825 2.822 4.384 6.595 4.384 10.603h6.16c-0-11.651-9.478-21.127-21.121-21.127zM0.012 0v6.136c14.243 0 25.836 11.604 25.836 25.864h6.152c0-17.64-14.352-32-31.988-32z"></path>
</symbol>
<symbol id="icon-github" viewBox="0 0 32 32">
<title>github</title>
<path d="M16 0.395c-8.836 0-16 7.163-16 16 0 7.069 4.585 13.067 10.942 15.182 0.8 0.148 1.094-0.347 1.094-0.77 0-0.381-0.015-1.642-0.022-2.979-4.452 0.968-5.391-1.888-5.391-1.888-0.728-1.849-1.776-2.341-1.776-2.341-1.452-0.993 0.11-0.973 0.11-0.973 1.606 0.113 2.452 1.649 2.452 1.649 1.427 2.446 3.743 1.739 4.656 1.33 0.143-1.034 0.558-1.74 1.016-2.14-3.554-0.404-7.29-1.777-7.29-7.907 0-1.747 0.625-3.174 1.649-4.295-0.166-0.403-0.714-2.030 0.155-4.234 0 0 1.344-0.43 4.401 1.64 1.276-0.355 2.645-0.532 4.005-0.539 1.359 0.006 2.729 0.184 4.008 0.539 3.054-2.070 4.395-1.64 4.395-1.64 0.871 2.204 0.323 3.831 0.157 4.234 1.026 1.12 1.647 2.548 1.647 4.295 0 6.145-3.743 7.498-7.306 7.895 0.574 0.497 1.085 1.47 1.085 2.963 0 2.141-0.019 3.864-0.019 4.391 0 0.426 0.288 0.925 1.099 0.768 6.354-2.118 10.933-8.113 10.933-15.18 0-8.837-7.164-16-16-16z"></path>
</symbol>
<symbol id="icon-tux" viewBox="0 0 32 32">
<title>tux</title>
<path d="M17.739 23.029c-2.561 1.191-4.942 1.179-6.542 1.063-1.908-0.138-3.442-0.66-4.117-1.117-0.416-0.281-0.981-0.173-1.262 0.243s-0.173 0.981 0.243 1.262c1.084 0.734 3.002 1.28 5.005 1.424 0.34 0.024 0.712 0.040 1.114 0.040 1.743 0 3.957-0.166 6.326-1.268 0.455-0.212 0.652-0.752 0.441-1.207s-0.752-0.652-1.208-0.441zM27.842 21.682c0.087-7.896 0.899-22.819-14.218-21.613-14.925 1.201-10.968 16.968-11.19 22.248-0.197 2.793-1.124 6.208-2.434 9.683h4.034c0.415-1.473 0.72-2.929 0.851-4.317 0.243 0.17 0.503 0.334 0.781 0.491 0.452 0.266 0.84 0.62 1.251 0.995 0.961 0.876 2.050 1.868 4.179 1.992 0.143 0.008 0.287 0.012 0.427 0.012 2.153 0 3.625-0.942 4.809-1.699 0.567-0.363 1.057-0.676 1.518-0.827 1.31-0.41 2.454-1.072 3.309-1.914 0.134-0.131 0.258-0.267 0.374-0.405 0.476 1.746 1.129 3.711 1.853 5.672h8.614c-2.068-3.195-4.201-6.324-4.158-10.318zM3.878 17.386c0-0 0-0.001-0-0.001-0.148-2.577 1.085-4.745 2.754-4.842s3.142 1.913 3.291 4.49c0 0 0 0.001 0 0.001 0.008 0.139 0.011 0.276 0.012 0.413-0.529 0.133-1.006 0.326-1.434 0.551-0.002-0.019-0.003-0.038-0.005-0.057 0-0 0-0.001 0-0.001-0.143-1.463-0.924-2.567-1.745-2.467s-1.371 1.367-1.228 2.83c0 0 0 0.001 0 0.001 0.062 0.638 0.246 1.207 0.501 1.639-0.064 0.050-0.243 0.182-0.45 0.333-0.155 0.114-0.344 0.252-0.572 0.42-0.621-0.815-1.047-1.987-1.123-3.309zM20.789 23.756c-0.059 1.362-1.841 2.643-3.487 3.158l-0.009 0.003c-0.684 0.222-1.295 0.613-1.941 1.026-1.085 0.695-2.208 1.413-3.829 1.413-0.106 0-0.215-0.003-0.323-0.009-1.485-0.087-2.179-0.72-3.059-1.521-0.464-0.423-0.943-0.86-1.562-1.223l-0.013-0.008c-1.335-0.753-2.163-1.69-2.216-2.506-0.026-0.406 0.154-0.757 0.537-1.044 0.832-0.624 1.39-1.032 1.759-1.302 0.41-0.3 0.533-0.39 0.625-0.477 0.066-0.062 0.136-0.131 0.213-0.205 0.764-0.743 2.043-1.986 4.005-1.986 1.2 0 2.528 0.462 3.943 1.372 0.666 0.434 1.246 0.634 1.981 0.887 0.505 0.174 1.077 0.372 1.843 0.7l0.012 0.005c0.715 0.294 1.559 0.83 1.521 1.717zM20.395 20.556c-0.137-0.069-0.28-0.135-0.43-0.196-0.691-0.296-1.245-0.496-1.704-0.656 0.254-0.497 0.411-1.116 0.426-1.789 0-0 0-0.001 0-0.001 0.035-1.637-0.79-2.966-1.844-2.968s-1.936 1.322-1.971 2.959c0 0 0 0.001 0 0.001-0.001 0.054-0.001 0.107-0.001 0.16-0.649-0.299-1.287-0.515-1.911-0.649-0.003-0.061-0.006-0.123-0.008-0.185 0-0 0-0.001 0-0.002-0.061-2.982 1.769-5.45 4.086-5.513s4.245 2.303 4.305 5.285c0 0.001 0 0.001 0 0.002 0.027 1.348-0.333 2.59-0.949 3.552z"></path>
</symbol>
<symbol id="icon-wikipedia" viewBox="0 0 32 32">
<title>wikipedia</title>
<path d="M30.212 7.3c0 0.1-0.031 0.194-0.094 0.281-0.063 0.081-0.131 0.125-0.212 0.125-0.625 0.063-1.137 0.263-1.531 0.6-0.4 0.338-0.806 0.994-1.225 1.95l-6.45 14.544c-0.044 0.137-0.163 0.2-0.356 0.2-0.15 0-0.269-0.069-0.356-0.2l-3.619-7.563-4.162 7.563c-0.088 0.137-0.2 0.2-0.356 0.2-0.188 0-0.306-0.069-0.369-0.2l-6.331-14.537c-0.394-0.9-0.813-1.531-1.25-1.887s-1.050-0.581-1.831-0.662c-0.069 0-0.131-0.037-0.188-0.106-0.063-0.069-0.087-0.15-0.087-0.244 0-0.237 0.069-0.356 0.2-0.356 0.562 0 1.156 0.025 1.775 0.075 0.575 0.050 1.112 0.075 1.619 0.075 0.513 0 1.125-0.025 1.825-0.075 0.731-0.050 1.381-0.075 1.95-0.075 0.137 0 0.2 0.119 0.2 0.356s-0.044 0.35-0.125 0.35c-0.563 0.044-1.012 0.188-1.338 0.431s-0.487 0.563-0.487 0.963c0 0.2 0.069 0.456 0.2 0.756l5.231 11.825 2.975-5.613-2.769-5.806c-0.5-1.037-0.906-1.706-1.225-2.006s-0.806-0.481-1.456-0.55c-0.063 0-0.113-0.037-0.169-0.106s-0.081-0.15-0.081-0.244c0-0.237 0.056-0.356 0.175-0.356 0.563 0 1.081 0.025 1.556 0.075 0.456 0.050 0.938 0.075 1.456 0.075 0.506 0 1.037-0.025 1.606-0.075 0.581-0.050 1.156-0.075 1.719-0.075 0.137 0 0.2 0.119 0.2 0.356s-0.038 0.35-0.125 0.35c-1.131 0.075-1.694 0.4-1.694 0.963 0 0.25 0.131 0.644 0.394 1.175l1.831 3.719 1.825-3.4c0.25-0.481 0.381-0.887 0.381-1.213 0-0.775-0.563-1.188-1.694-1.237-0.1 0-0.15-0.119-0.15-0.35 0-0.088 0.025-0.162 0.075-0.237s0.1-0.112 0.15-0.112c0.406 0 0.9 0.025 1.494 0.075 0.563 0.050 1.031 0.075 1.394 0.075 0.262 0 0.644-0.025 1.15-0.063 0.637-0.056 1.175-0.088 1.606-0.088 0.1 0 0.15 0.1 0.15 0.3 0 0.269-0.094 0.406-0.275 0.406-0.656 0.069-1.188 0.25-1.587 0.544s-0.9 0.963-1.5 2.013l-2.444 4.475 3.288 6.7 4.856-11.294c0.169-0.412 0.25-0.794 0.25-1.137 0-0.825-0.563-1.263-1.694-1.319-0.1 0-0.15-0.119-0.15-0.35 0-0.237 0.075-0.356 0.225-0.356 0.413 0 0.9 0.025 1.469 0.075 0.525 0.050 0.962 0.075 1.313 0.075 0.375 0 0.8-0.025 1.288-0.075 0.506-0.050 0.962-0.075 1.369-0.075 0.125 0 0.188 0.1 0.188 0.3z"></path>
</symbol>
<symbol id="icon-arrow_full_left" viewBox="0 0 32 32">
<title>arrow_full_left</title>
<path d="M16 1.984v8h14.016v12h-14.016v8.032l-13.984-14.016z"></path>
</symbol>
<symbol id="icon-avatar" viewBox="0 0 32 32">
<title>avatar</title>
<path d="M28 17.984h-3.904c1.184-3.136 1.888-6.848 1.92-10.592 0-1.792-0.512-3.456-1.376-4.896l-0.448-0.8-0.832 0.416c0 0-0.544 0.256-1.376 0.576-1.472-1.632-3.584-2.688-5.984-2.688s-4.512 1.056-5.984 2.72c-0.832-0.352-1.376-0.608-1.376-0.608l-0.832-0.416-0.48 0.8c-0.832 1.44-1.312 3.136-1.312 4.896 0 3.744 0.704 7.456 1.888 10.592-3.456 0-3.904 0-3.904 0s-4 0.192-4 4c0 2.016 0 10.016 0 10.016h32v-10.016c0 0 0-4-4-4zM21.472 19.072c-1.568 3.168-3.648 4.96-5.472 4.928-1.824 0.032-3.904-1.76-5.472-4.928-1.536-3.136-2.528-7.424-2.528-11.68 0-1.088 0.224-2.144 0.64-3.072 1.504 0.64 4.64 1.856 7.36 1.888 2.72-0.032 5.856-1.248 7.328-1.92 0.448 0.96 0.672 2.016 0.672 3.104 0 4.256-0.992 8.544-2.528 11.68zM11.008 16c0 0 0.992 4 4.992 4 3.904 0 4.992-4 4.992-4s-2.976 0.992-4.992 0.992-4.992-0.992-4.992-0.992zM15.008 9.984c0 0-0.992-1.984-3.008-1.984s-3.008 1.984-3.008 1.984 2.016 0 3.008 0 3.008 0 3.008 0zM20 8c-1.984 0-3.008 1.984-3.008 1.984s2.016 0 3.008 0 3.008 0 3.008 0-0.992-1.984-3.008-1.984z"></path>
</symbol>
<symbol id="icon-bookmark" viewBox="0 0 32 32">
<title>bookmark</title>
<path d="M20 1.984v-1.984h-16.992c-0.096 0-0.704 0-1.44 0.352-0.768 0.32-1.6 1.28-1.568 2.656 0 0 0 0 0 0v20.992c0 1.984 2.016 1.984 2.016 1.984h8v6.016l2.976-1.984 3.008 1.984v-6.016h4v-21.984h-1.984v-2.016h1.984zM18.016 24h-14.016v-18.016h14.016v18.016zM16 4h-12.992c0 0-0.032 0-0.16-0.032-0.16 0-0.416-0.096-0.576-0.224-0.128-0.128-0.256-0.256-0.256-0.736 0.032-0.64 0.192-0.704 0.448-0.864 0.128-0.064 0.288-0.096 0.384-0.128 0.128-0.032 0.16 0 0.16-0.032h12.992v2.016z"></path>
</symbol>
<symbol id="icon-book_sans" viewBox="0 0 32 32">
<title>book_sans</title>
<path d="M27.008 0.992v2.016h-2.016v1.984h2.016v28h-24c0 0-2.016 0-2.016-1.984v-26.976c0-0.032 0-0.032 0-0.032-0.032-1.344 0.832-2.304 1.568-2.656s1.344-0.352 1.44-0.352h23.008M4 4.992c0 0 0 0 0 0h19.008v-1.984h-19.008c0 0-0.032 0-0.16 0-0.096 0.032-0.256 0.064-0.384 0.128-0.256 0.192-0.416 0.224-0.448 0.864 0 0.512 0.128 0.608 0.256 0.736 0.16 0.128 0.416 0.224 0.576 0.256 0.096 0 0.16 0 0.16 0M4.992 31.008h20v-24h-20v24"></path>
</symbol>
<symbol id="icon-buy" viewBox="0 0 32 32">
<title>buy</title>
<path d="M24 25.984c0 1.664-1.344 3.008-3.008 3.008-1.632 0-2.976-1.344-2.976-3.008 0-1.632 1.344-2.976 2.976-2.976 1.664 0 3.008 1.344 3.008 2.976zM16 0c0 0-0.704-0.032-1.44 0.352-0.736 0.352-1.568 1.312-1.568 2.656h-8c0 0-0.704-0.032-1.44 0.32-0.736 0.384-1.536 1.344-1.536 2.656 0 0.48 0.16 0.8 0.32 1.184-0.256 0.032-0.384-0.032-0.768 0.16-0.736 0.384-1.568 1.344-1.568 2.656 0 0.896 0.384 1.536 0.832 2.016-0.448 0.48-0.832 1.12-0.832 1.984 0 1.344 0.832 2.304 1.568 2.656 0.384 0.224 0.512 0.16 0.768 0.192-0.16 0.352-0.32 0.704-0.32 1.152 0 1.344 0.8 2.304 1.536 2.656 0.736 0.384 1.44 0.352 1.44 0.352h7.008c0 1.664 1.344 3.008 3.008 3.008s3.008-1.344 3.008-3.008h5.984c1.728 0 2.88-0.64 3.424-1.408 0.224-0.288 0.16-0.32 0.224-0.576h4.352v-2.016h-5.984v0.992c0 0-0.032 0.192-0.192 0.416-0.192 0.256-0.544 0.608-1.824 0.608h-6.784c-0.544-0.608-1.344-1.024-2.208-1.024-0.896 0-1.664 0.416-2.24 1.024h-7.776c0 0-0.288-0.032-0.544-0.16s-0.448-0.192-0.448-0.864c0-0.64 0.192-0.704 0.448-0.832s0.544-0.16 0.544-0.16h9.024v-1.984h-11.008c0 0-0.32-0.032-0.576-0.16s-0.416-0.192-0.416-0.864c0-0.64 0.16-0.704 0.416-0.832s0.576-0.16 0.576-0.16h9.984v-1.984h-9.984c0 0-0.32-0.032-0.576-0.16s-0.416-0.192-0.416-0.864c0-0.64 0.16-0.704 0.416-0.832s0.576-0.16 0.576-0.16h12v-1.984h-10.016c0 0-0.288-0.032-0.544-0.16s-0.448-0.192-0.448-0.864c0-0.64 0.192-0.704 0.448-0.832s0.544-0.16 0.544-0.16h8.864c0.224 0.256 0.448 0.544 0.704 0.672 0.736 0.352 1.44 0.32 1.44 0.32h5.184c0.16 0.544 0.352 1.056 0.704 1.408 0.512 0.608 1.152 0.928 1.76 1.184 1.216 0.448 2.368 0.416 2.368 0.416v-1.984c0 0-0.864-0.032-1.664-0.32-0.416-0.16-0.736-0.384-0.96-0.64-0.256-0.256-0.384-0.512-0.384-1.056v-0.992h-7.008c0 0-0.288-0.032-0.576-0.16-0.256-0.128-0.416-0.16-0.416-0.832s0.16-0.736 0.416-0.864c0.288-0.128 0.576-0.16 0.576-0.16h8c1.664 0 2.208 0.704 2.592 1.44 0.384 0.768 0.416 1.568 0.416 1.568v0.992h4.992v-1.984h-3.264c-0.032-0.48 0.032-0.704-0.32-1.44-0.64-1.248-2.080-2.56-4.416-2.56h-8zM19.008 12c-1.664 0-3.008 1.344-3.008 3.008 0 1.632 1.344 2.976 3.008 2.976s3.008-1.344 3.008-2.976c0-1.664-1.344-3.008-3.008-3.008z"></path>
</symbol>
<symbol id="icon-picol-calendar" viewBox="0 0 32 32">
<title>calendar</title>
<path d="M28.064 1.92v-1.92h-1.984v1.92h-20v-1.92h-2.016v1.92h-4.064v30.144h32.16v-30.144h-4.096zM30.016 29.92h-27.872v-23.936h1.92v2.016h2.016v-2.016h20v2.016h1.984v-2.016h1.952v23.936zM18.080 24h5.984v1.984h-5.984zM18.080 12h4v1.984h-4zM20.064 12h2.016v13.984h-2.016zM10.080 17.984h4v2.016h-4zM8.064 24h6.016v1.984h-6.016zM8.064 12h6.016v1.984h-6.016zM14.080 13.984h1.984v4h-1.984zM14.080 20h1.984v4h-1.984z"></path>
</symbol>
<symbol id="icon-clock" viewBox="0 0 32 32">
<title>clock</title>
<path d="M14.016 5.984v12h8v-4h-4v-7.968zM0 16c0-8.832 7.168-16 16-16v0c8.832 0 16 7.168 16 16v0c0 8.832-7.168 16-16 16v0c-8.832 0-16-7.168-16-16v0zM4 16c0 6.624 5.376 12 12 12v0c6.624 0 12-5.376 12-12v0c0-6.624-5.376-12-12-12v0c-6.624 0-12 5.376-12 12v0z"></path>
</symbol>
<symbol id="icon-comment" viewBox="0 0 32 32">
<title>comment</title>
<path d="M8 16h12v1.984h-12zM8 12h18.016v1.984h-18.016zM8 8h18.016v1.984h-18.016zM30.016 1.984v22.016h-19.584l-6.016 6.016h-2.4v-28.032M9.6 21.984h18.4v-17.984h-24v23.584l5.6-5.6z"></path>
</symbol>
<symbol id="icon-computer" viewBox="0 0 32 32">
<title>computer</title>
<path d="M4 1.984v18.016h24v-18.016h-24zM26.016 17.984h-20v-13.984h20v13.984zM28 21.984l4 8.032h-32l4-8.032z"></path>
</symbol>
<symbol id="icon-edit" viewBox="0 0 32 32">
<title>edit</title>
<path d="M26.016 30.016v1.984h-22.016v-1.984zM32 5.984l-20 20-5.984-5.984 20-20zM4 21.984l6.016 6.016h-6.016z"></path>
</symbol>
<symbol id="icon-flag" viewBox="0 0 32 32">
<title>flag</title>
<path d="M22.016 4c-6.016 0-10.016-3.552-16-2.016v-0.992c0 0 0-0.992-1.024-0.992-0.992 0-0.992 0.992-0.992 0.992v31.008h2.016v-12c5.984-2.016 9.984 1.984 16 1.984 5.984 0 8-1.984 8-1.984v-18.016c0 0-2.016 2.016-8 2.016z"></path>
</symbol>
<symbol id="picol-icon-home" viewBox="0 0 32 32">
<title>home</title>
<path d="M32 8l-16-8-16 8v4l2.016-0.992v20.992h28v-20.992l1.984 0.992v-4zM28 30.016h-24v-20.032l12-5.984 12 5.984v20.032z"></path>
</symbol>
<symbol id="icon-light" viewBox="0 0 32 32">
<title>light</title>
<path d="M26.656 5.536c-1.344-2.72-4.288-5.568-9.664-5.536-5.344-0.032-8.32 2.816-9.632 5.536-1.376 2.752-1.344 5.376-1.344 5.472 0.032 5.536 4.224 9.6 4.288 9.696 0.8 0.832 1.248 1.888 1.472 2.784 0.128 0.448 0.16 0.832 0.192 1.12 0.032 0.256 0.032 0.384 0.032 0.384v5.024h2.016l1.984 1.984h2.016l1.984-1.984h2.016v-5.056c0-0.032 0-0.128 0-0.352 0.096-0.832 0.448-2.688 1.696-3.904 0.032-0.096 4.256-4.16 4.288-9.696 0-0.096 0-2.72-1.344-5.472zM24.16 16.864c-0.48 0.736-0.96 1.376-1.312 1.792s-0.544 0.64-0.544 0.64c-1.568 1.6-2.048 3.552-2.208 4.704h-6.176c-0.16-1.152-0.64-3.104-2.208-4.704 0 0-0.224-0.224-0.576-0.64-1.056-1.28-3.168-4.32-3.136-7.648 0 0 0-0.544 0.128-1.408 0.224-1.312 0.768-3.232 2.080-4.8 1.312-1.536 3.296-2.784 6.784-2.816 4.64 0.064 6.688 2.208 7.872 4.448 0.544 1.152 0.864 2.304 0.992 3.168 0.16 0.864 0.128 1.408 0.16 1.408 0 2.208-0.928 4.32-1.856 5.856z"></path>
</symbol>
<symbol id="icon-light_off" viewBox="0 0 32 32">
<title>light_off</title>
<path d="M32 1.984l-1.984-1.984-4.192 4.16c-1.568-2.24-4.384-4.192-8.832-4.16-5.344-0.032-8.32 2.816-9.632 5.536-1.376 2.752-1.344 5.376-1.344 5.472 0.032 4.416 2.688 7.904 3.808 9.184l-7.808 7.808 1.984 2.016 7.456-7.488c0.128 0.352 0.256 0.672 0.32 0.96 0.128 0.448 0.16 0.832 0.192 1.12 0.032 0.256 0.032 0.384 0.032 0.384v5.024h2.016l1.984 1.984h2.016l1.984-1.984h2.016v-5.056c0-0.032 0-0.128 0-0.352 0.096-0.832 0.448-2.688 1.696-3.904 0.032-0.096 4.256-4.16 4.288-9.696 0-0.096 0-1.952-0.8-4.192l4.8-4.832zM11.136 18.656c-1.056-1.28-3.168-4.32-3.136-7.648 0 0 0-0.544 0.128-1.408 0.224-1.312 0.768-3.232 2.080-4.8 1.312-1.536 3.296-2.784 6.784-2.816 4.096 0.032 6.144 1.696 7.392 3.648l-13.152 13.12c-0.032-0.032-0.064-0.064-0.096-0.096zM25.856 9.6c0.16 0.864 0.128 1.408 0.16 1.408 0 2.208-0.928 4.32-1.856 5.856-0.48 0.736-0.96 1.376-1.312 1.792s-0.544 0.64-0.544 0.64c-1.568 1.6-2.048 3.552-2.208 4.704h-6.176c-0.096-0.768-0.352-1.856-0.96-2.976l12.64-12.608c0.096 0.416 0.192 0.832 0.256 1.184z"></path>
</symbol>
<symbol id="icon-mail" viewBox="0 0 32 32">
<title>mail</title>
<path d="M0 4v24h32v-24h-32zM28.16 5.984l-12.16 9.728-12.16-9.728h24.32zM2.016 25.984v-18.912l13.984 11.2 14.016-11.2v18.912h-28z"></path>
</symbol>
<symbol id="icon-news" viewBox="0 0 32 32">
<title>news</title>
<path d="M4 13.984h20v-1.984h-20v1.984zM15.008 25.984h7.008v-1.984h-7.008v1.984zM15.008 21.984h8.992v-1.984h-8.992v1.984zM15.008 17.984h8.992v-1.984h-8.992v1.984zM4 25.984h8.992v-9.984h-8.992v9.984zM28 9.984v-4h-28v22.016c0 0 0 4 4 4h24.992c0 0 3.008-0.064 3.008-4v-18.016h-4zM4 30.016c-1.984 0-1.984-2.016-1.984-2.016v-20h24v20c0 0.928 0.256 1.568 0.672 2.016h-22.688z"></path>
</symbol>
<symbol id="icon-security_closed" viewBox="0 0 32 32">
<title>security_closed</title>
<path d="M24 13.984c0-0.128 0-2.272-0.864-4.704-0.48-1.184-1.152-2.464-2.336-3.52-1.152-1.056-2.848-1.792-4.8-1.76-1.952-0.032-3.616 0.704-4.8 1.76-1.76 1.568-2.464 3.648-2.848 5.28-0.352 1.6-0.352 2.848-0.352 2.944h-1.984v16.032h20v-16.032h-2.016zM12 13.76c0.032-0.608 0.224-2.336 0.864-3.648 0.736-1.312 1.376-2.048 3.136-2.112 1.056 0 1.632 0.288 2.144 0.736 0.768 0.672 1.344 1.984 1.6 3.168 0.128 0.608 0.192 1.152 0.224 1.536s0.032 0.544 0.032 0.544h-8c0 0 0-0.032 0-0.224z"></path>
</symbol>
<symbol id="icon-star" viewBox="0 0 32 32">
<title>star</title>
<path d="M32 9.984h-12l-4-9.984-4 9.984h-12l8 10.016-4 12 12-7.008 12 7.008-4-12 8-10.016z"></path>
</symbol>
<symbol id="icon-website" viewBox="0 0 32 32">
<title>website</title>
<path d="M28 13.984h-9.984v2.016h9.984v-2.016zM28 17.984h-9.984v2.016h9.984v-2.016zM24 21.984h-5.984v2.016h5.984v-2.016zM14.016 13.984h-10.016v10.016h10.016v-10.016zM0 5.984v26.016h32v-26.016h-32zM30.016 30.016h-28l0.064-20.032h27.936v20.032z"></path>
</symbol>
<symbol id="icon-feedly" viewBox="0 0 32 32">
<title>feedly</title>
<path d="M9.861 29.243l-9.035-9.099c-1.1-1.099-1.1-3.479 0-4.52l12.945-13.003c1.041-1.040 3.361-1.040 4.396 0l13.008 13.004c1.101 1.1 1.101 3.481 0 4.521l-9.039 9.099c-0.548 0.547-1.404 0.915-2.26 0.915h-7.877c-0.795-0.001-1.587-0.368-2.139-0.917zM18.107 25.701c0.183-0.184 0.183-0.551 0-0.733l-1.771-1.771c-0.184-0.2-0.549-0.2-0.732 0l-1.772 1.759c-0.184 0.179-0.184 0.54 0 0.72l1.405 1.34h1.465l1.42-1.36-0.016 0.045zM18.107 18.191c0.123-0.12 0.123-0.427 0-0.549l-1.893-1.879c-0.12-0.121-0.427-0.121-0.549 0l-5.495 5.499c-0.185 0.2-0.185 0.62 0 0.801l1.279 1.28h1.469l5.191-5.14v-0.012zM18.107 10.741c0.123-0.121 0.183-0.488 0-0.611l-1.833-1.832c-0.12-0.139-0.487-0.139-0.669 0l-9.219 9.22c-0.125 0.12-0.187 0.479-0.065 0.599l1.467 1.4h1.404l8.916-8.776z"></path>
</symbol>
<symbol id="icon-bubble" viewBox="0 0 32 32">
<title>bubble</title>
<path d="M16 2c8.837 0 16 5.82 16 13s-7.163 13-16 13c-0.849 0-1.682-0.054-2.495-0.158-3.437 3.437-7.539 4.053-11.505 4.144v-0.841c2.142-1.049 4-2.961 4-5.145 0-0.305-0.024-0.604-0.068-0.897-3.619-2.383-5.932-6.024-5.932-10.103 0-7.18 7.163-13 16-13z"></path>
<symbol id="icon-aid-kit" viewBox="0 0 32 32">
<title>aid-kit</title>
<path d="M28 8h-6v-4c0-1.1-0.9-2-2-2h-8c-1.1 0-2 0.9-2 2v4h-6c-2.2 0-4 1.8-4 4v16c0 2.2 1.8 4 4 4h24c2.2 0 4-1.8 4-4v-16c0-2.2-1.8-4-4-4zM12 4h8v4h-8v-4zM24 22h-6v6h-4v-6h-6v-4h6v-6h4v6h6v4z"></path>
</symbol>
<symbol id="icon-mosca" viewBox="0 0 32 32">
<title>mosca</title>
<path fill="#fff" style="fill: var(--color1, #fff); stroke: var(--color2, #000)" stroke="#000" stroke-linejoin="miter" stroke-linecap="butt" stroke-miterlimit="4" stroke-width="1.537" d="M28.563 13.933c-0.917 6.291-4.754 10.791-8.57 10.052s-6.167-6.438-5.25-12.729c0.917-6.291 4.754-10.791 8.57-10.052s6.167 6.438 5.25 12.729z"></path>
<path fill="#fff" style="fill: var(--color1, #fff); stroke: var(--color2, #000)" stroke="#000" stroke-linejoin="miter" stroke-linecap="butt" stroke-miterlimit="4" stroke-width="1.591" d="M16.085 10.47c2.742 5.636 2.115 11.894-1.401 13.976s-8.589-0.799-11.331-6.435c-2.742-5.636-2.115-11.894 1.401-13.976s8.589 0.799 11.331 6.435z"></path>
<path fill="#000" style="fill: var(--color2, #000); stroke: var(--color1, #fff)" stroke="#fff" stroke-linejoin="miter" stroke-linecap="butt" stroke-miterlimit="4" stroke-width="1.1551" d="M30.498 20.167c0 5.971-4.918 10.812-10.985 10.812s-10.985-4.841-10.985-10.812c0-5.971 4.918-10.812 10.985-10.812s10.985 4.841 10.985 10.812z"></path>
<path fill="none" stroke="#000" style="stroke: var(--color2, #000)" stroke-linejoin="miter" stroke-linecap="butt" stroke-miterlimit="4" stroke-width="1.6206" d="M6.474 8.935l6.606 9.962"></path>
<path fill="none" stroke="#000" style="stroke: var(--color2, #000)" stroke-linejoin="miter" stroke-linecap="butt" stroke-miterlimit="4" stroke-width="1.6206" d="M22.896 3.638l-1.734 11.827"></path>
</symbol>
</defs>
</svg>
