<svg aria-hidden="true" style="position: absolute; width: 0; height: 0; overflow: hidden;" version="1.1" xmlns="http://www.w3.org/2000/svg" xmlns:xlink="http://www.w3.org/1999/xlink">
<defs>
<symbol id="icon-arrow_full_left" viewBox="0 0 32 32">
<title>arrow_full_left</title>
<path d="M16 1.984v8h14.016v12h-14.016v8.032l-13.984-14.016z"></path>
</symbol>
<symbol id="icon-avatar" viewBox="0 0 32 32">
<title>avatar</title>
<path d="M28 17.984h-3.904c1.184-3.136 1.888-6.848 1.92-10.592 0-1.792-0.512-3.456-1.376-4.896l-0.448-0.8-0.832 0.416c0 0-0.544 0.256-1.376 0.576-1.472-1.632-3.584-2.688-5.984-2.688s-4.512 1.056-5.984 2.72c-0.832-0.352-1.376-0.608-1.376-0.608l-0.832-0.416-0.48 0.8c-0.832 1.44-1.312 3.136-1.312 4.896 0 3.744 0.704 7.456 1.888 10.592-3.456 0-3.904 0-3.904 0s-4 0.192-4 4c0 2.016 0 10.016 0 10.016h32v-10.016c0 0 0-4-4-4zM21.472 19.072c-1.568 3.168-3.648 4.96-5.472 4.928-1.824 0.032-3.904-1.76-5.472-4.928-1.536-3.136-2.528-7.424-2.528-11.68 0-1.088 0.224-2.144 0.64-3.072 1.504 0.64 4.64 1.856 7.36 1.888 2.72-0.032 5.856-1.248 7.328-1.92 0.448 0.96 0.672 2.016 0.672 3.104 0 4.256-0.992 8.544-2.528 11.68zM11.008 16c0 0 0.992 4 4.992 4 3.904 0 4.992-4 4.992-4s-2.976 0.992-4.992 0.992-4.992-0.992-4.992-0.992zM15.008 9.984c0 0-0.992-1.984-3.008-1.984s-3.008 1.984-3.008 1.984 2.016 0 3.008 0 3.008 0 3.008 0zM20 8c-1.984 0-3.008 1.984-3.008 1.984s2.016 0 3.008 0 3.008 0 3.008 0-0.992-1.984-3.008-1.984z"></path>
</symbol>
<symbol id="icon-bookmark" viewBox="0 0 32 32">
<title>bookmark</title>
<path d="M20 1.984v-1.984h-16.992c-0.096 0-0.704 0-1.44 0.352-0.768 0.32-1.6 1.28-1.568 2.656 0 0 0 0 0 0v20.992c0 1.984 2.016 1.984 2.016 1.984h8v6.016l2.976-1.984 3.008 1.984v-6.016h4v-21.984h-1.984v-2.016h1.984zM18.016 24h-14.016v-18.016h14.016v18.016zM16 4h-12.992c0 0-0.032 0-0.16-0.032-0.16 0-0.416-0.096-0.576-0.224-0.128-0.128-0.256-0.256-0.256-0.736 0.032-0.64 0.192-0.704 0.448-0.864 0.128-0.064 0.288-0.096 0.384-0.128 0.128-0.032 0.16 0 0.16-0.032h12.992v2.016z"></path>
</symbol>
<symbol id="icon-book_sans" viewBox="0 0 32 32">
<title>book_sans</title>
<path d="M27.008 0.992v2.016h-2.016v1.984h2.016v28h-24c0 0-2.016 0-2.016-1.984v-26.976c0-0.032 0-0.032 0-0.032-0.032-1.344 0.832-2.304 1.568-2.656s1.344-0.352 1.44-0.352h23.008M4 4.992c0 0 0 0 0 0h19.008v-1.984h-19.008c0 0-0.032 0-0.16 0-0.096 0.032-0.256 0.064-0.384 0.128-0.256 0.192-0.416 0.224-0.448 0.864 0 0.512 0.128 0.608 0.256 0.736 0.16 0.128 0.416 0.224 0.576 0.256 0.096 0 0.16 0 0.16 0M4.992 31.008h20v-24h-20v24"></path>
</symbol>
<symbol id="icon-buy" viewBox="0 0 32 32">
<title>buy</title>
<path d="M24 25.984c0 1.664-1.344 3.008-3.008 3.008-1.632 0-2.976-1.344-2.976-3.008 0-1.632 1.344-2.976 2.976-2.976 1.664 0 3.008 1.344 3.008 2.976zM16 0c0 0-0.704-0.032-1.44 0.352-0.736 0.352-1.568 1.312-1.568 2.656h-8c0 0-0.704-0.032-1.44 0.32-0.736 0.384-1.536 1.344-1.536 2.656 0 0.48 0.16 0.8 0.32 1.184-0.256 0.032-0.384-0.032-0.768 0.16-0.736 0.384-1.568 1.344-1.568 2.656 0 0.896 0.384 1.536 0.832 2.016-0.448 0.48-0.832 1.12-0.832 1.984 0 1.344 0.832 2.304 1.568 2.656 0.384 0.224 0.512 0.16 0.768 0.192-0.16 0.352-0.32 0.704-0.32 1.152 0 1.344 0.8 2.304 1.536 2.656 0.736 0.384 1.44 0.352 1.44 0.352h7.008c0 1.664 1.344 3.008 3.008 3.008s3.008-1.344 3.008-3.008h5.984c1.728 0 2.88-0.64 3.424-1.408 0.224-0.288 0.16-0.32 0.224-0.576h4.352v-2.016h-5.984v0.992c0 0-0.032 0.192-0.192 0.416-0.192 0.256-0.544 0.608-1.824 0.608h-6.784c-0.544-0.608-1.344-1.024-2.208-1.024-0.896 0-1.664 0.416-2.24 1.024h-7.776c0 0-0.288-0.032-0.544-0.16s-0.448-0.192-0.448-0.864c0-0.64 0.192-0.704 0.448-0.832s0.544-0.16 0.544-0.16h9.024v-1.984h-11.008c0 0-0.32-0.032-0.576-0.16s-0.416-0.192-0.416-0.864c0-0.64 0.16-0.704 0.416-0.832s0.576-0.16 0.576-0.16h9.984v-1.984h-9.984c0 0-0.32-0.032-0.576-0.16s-0.416-0.192-0.416-0.864c0-0.64 0.16-0.704 0.416-0.832s0.576-0.16 0.576-0.16h12v-1.984h-10.016c0 0-0.288-0.032-0.544-0.16s-0.448-0.192-0.448-0.864c0-0.64 0.192-0.704 0.448-0.832s0.544-0.16 0.544-0.16h8.864c0.224 0.256 0.448 0.544 0.704 0.672 0.736 0.352 1.44 0.32 1.44 0.32h5.184c0.16 0.544 0.352 1.056 0.704 1.408 0.512 0.608 1.152 0.928 1.76 1.184 1.216 0.448 2.368 0.416 2.368 0.416v-1.984c0 0-0.864-0.032-1.664-0.32-0.416-0.16-0.736-0.384-0.96-0.64-0.256-0.256-0.384-0.512-0.384-1.056v-0.992h-7.008c0 0-0.288-0.032-0.576-0.16-0.256-0.128-0.416-0.16-0.416-0.832s0.16-0.736 0.416-0.864c0.288-0.128 0.576-0.16 0.576-0.16h8c1.664 0 2.208 0.704 2.592 1.44 0.384 0.768 0.416 1.568 0.416 1.568v0.992h4.992v-1.984h-3.264c-0.032-0.48 0.032-0.704-0.32-1.44-0.64-1.248-2.080-2.56-4.416-2.56h-8zM19.008 12c-1.664 0-3.008 1.344-3.008 3.008 0 1.632 1.344 2.976 3.008 2.976s3.008-1.344 3.008-2.976c0-1.664-1.344-3.008-3.008-3.008z"></path>
</symbol>
<symbol id="icon-calendar" viewBox="0 0 32 32">
<title>calendar</title>
<path d="M28.064 1.92v-1.92h-1.984v1.92h-20v-1.92h-2.016v1.92h-4.064v30.144h32.16v-30.144h-4.096zM30.016 29.92h-27.872v-23.936h1.92v2.016h2.016v-2.016h20v2.016h1.984v-2.016h1.952v23.936zM18.080 24h5.984v1.984h-5.984zM18.080 12h4v1.984h-4zM20.064 12h2.016v13.984h-2.016zM10.080 17.984h4v2.016h-4zM8.064 24h6.016v1.984h-6.016zM8.064 12h6.016v1.984h-6.016zM14.080 13.984h1.984v4h-1.984zM14.080 20h1.984v4h-1.984z"></path>
</symbol>
<symbol id="icon-clock" viewBox="0 0 32 32">
<title>clock</title>
<path d="M14.016 5.984v12h8v-4h-4v-7.968zM0 16c0-8.832 7.168-16 16-16v0c8.832 0 16 7.168 16 16v0c0 8.832-7.168 16-16 16v0c-8.832 0-16-7.168-16-16v0zM4 16c0 6.624 5.376 12 12 12v0c6.624 0 12-5.376 12-12v0c0-6.624-5.376-12-12-12v0c-6.624 0-12 5.376-12 12v0z"></path>
</symbol>
<symbol id="icon-comment" viewBox="0 0 32 32">
<title>comment</title>
<path d="M8 16h12v1.984h-12zM8 12h18.016v1.984h-18.016zM8 8h18.016v1.984h-18.016zM30.016 1.984v22.016h-19.584l-6.016 6.016h-2.4v-28.032M9.6 21.984h18.4v-17.984h-24v23.584l5.6-5.6z"></path>
</symbol>
<symbol id="icon-computer" viewBox="0 0 32 32">
<title>computer</title>
<path d="M4 1.984v18.016h24v-18.016h-24zM26.016 17.984h-20v-13.984h20v13.984zM28 21.984l4 8.032h-32l4-8.032z"></path>
</symbol>
<symbol id="icon-edit" viewBox="0 0 32 32">
<title>edit</title>
<path d="M26.016 30.016v1.984h-22.016v-1.984zM32 5.984l-20 20-5.984-5.984 20-20zM4 21.984l6.016 6.016h-6.016z"></path>
</symbol>
<symbol id="icon-flag" viewBox="0 0 32 32">
<title>flag</title>
<path d="M22.016 4c-6.016 0-10.016-3.552-16-2.016v-0.992c0 0 0-0.992-1.024-0.992-0.992 0-0.992 0.992-0.992 0.992v31.008h2.016v-12c5.984-2.016 9.984 1.984 16 1.984 5.984 0 8-1.984 8-1.984v-18.016c0 0-2.016 2.016-8 2.016z"></path>
</symbol>
<symbol id="icon-home" viewBox="0 0 32 32">
<title>home</title>
<path d="M32 8l-16-8-16 8v4l2.016-0.992v20.992h28v-20.992l1.984 0.992v-4zM28 30.016h-24v-20.032l12-5.984 12 5.984v20.032z"></path>
</symbol>
<symbol id="icon-light" viewBox="0 0 32 32">
<title>light</title>
<path d="M26.656 5.536c-1.344-2.72-4.288-5.568-9.664-5.536-5.344-0.032-8.32 2.816-9.632 5.536-1.376 2.752-1.344 5.376-1.344 5.472 0.032 5.536 4.224 9.6 4.288 9.696 0.8 0.832 1.248 1.888 1.472 2.784 0.128 0.448 0.16 0.832 0.192 1.12 0.032 0.256 0.032 0.384 0.032 0.384v5.024h2.016l1.984 1.984h2.016l1.984-1.984h2.016v-5.056c0-0.032 0-0.128 0-0.352 0.096-0.832 0.448-2.688 1.696-3.904 0.032-0.096 4.256-4.16 4.288-9.696 0-0.096 0-2.72-1.344-5.472zM24.16 16.864c-0.48 0.736-0.96 1.376-1.312 1.792s-0.544 0.64-0.544 0.64c-1.568 1.6-2.048 3.552-2.208 4.704h-6.176c-0.16-1.152-0.64-3.104-2.208-4.704 0 0-0.224-0.224-0.576-0.64-1.056-1.28-3.168-4.32-3.136-7.648 0 0 0-0.544 0.128-1.408 0.224-1.312 0.768-3.232 2.080-4.8 1.312-1.536 3.296-2.784 6.784-2.816 4.64 0.064 6.688 2.208 7.872 4.448 0.544 1.152 0.864 2.304 0.992 3.168 0.16 0.864 0.128 1.408 0.16 1.408 0 2.208-0.928 4.32-1.856 5.856z"></path>
</symbol>
<symbol id="icon-light_off" viewBox="0 0 32 32">
<title>light_off</title>
<path d="M32 1.984l-1.984-1.984-4.192 4.16c-1.568-2.24-4.384-4.192-8.832-4.16-5.344-0.032-8.32 2.816-9.632 5.536-1.376 2.752-1.344 5.376-1.344 5.472 0.032 4.416 2.688 7.904 3.808 9.184l-7.808 7.808 1.984 2.016 7.456-7.488c0.128 0.352 0.256 0.672 0.32 0.96 0.128 0.448 0.16 0.832 0.192 1.12 0.032 0.256 0.032 0.384 0.032 0.384v5.024h2.016l1.984 1.984h2.016l1.984-1.984h2.016v-5.056c0-0.032 0-0.128 0-0.352 0.096-0.832 0.448-2.688 1.696-3.904 0.032-0.096 4.256-4.16 4.288-9.696 0-0.096 0-1.952-0.8-4.192l4.8-4.832zM11.136 18.656c-1.056-1.28-3.168-4.32-3.136-7.648 0 0 0-0.544 0.128-1.408 0.224-1.312 0.768-3.232 2.080-4.8 1.312-1.536 3.296-2.784 6.784-2.816 4.096 0.032 6.144 1.696 7.392 3.648l-13.152 13.12c-0.032-0.032-0.064-0.064-0.096-0.096zM25.856 9.6c0.16 0.864 0.128 1.408 0.16 1.408 0 2.208-0.928 4.32-1.856 5.856-0.48 0.736-0.96 1.376-1.312 1.792s-0.544 0.64-0.544 0.64c-1.568 1.6-2.048 3.552-2.208 4.704h-6.176c-0.096-0.768-0.352-1.856-0.96-2.976l12.64-12.608c0.096 0.416 0.192 0.832 0.256 1.184z"></path>
</symbol>
<symbol id="icon-mail" viewBox="0 0 32 32">
<title>mail</title>
<path d="M0 4v24h32v-24h-32zM28.16 5.984l-12.16 9.728-12.16-9.728h24.32zM2.016 25.984v-18.912l13.984 11.2 14.016-11.2v18.912h-28z"></path>
</symbol>
<symbol id="icon-news" viewBox="0 0 32 32">
<title>news</title>
<path d="M4 13.984h20v-1.984h-20v1.984zM15.008 25.984h7.008v-1.984h-7.008v1.984zM15.008 21.984h8.992v-1.984h-8.992v1.984zM15.008 17.984h8.992v-1.984h-8.992v1.984zM4 25.984h8.992v-9.984h-8.992v9.984zM28 9.984v-4h-28v22.016c0 0 0 4 4 4h24.992c0 0 3.008-0.064 3.008-4v-18.016h-4zM4 30.016c-1.984 0-1.984-2.016-1.984-2.016v-20h24v20c0 0.928 0.256 1.568 0.672 2.016h-22.688z"></path>
</symbol>
<symbol id="icon-security_closed" viewBox="0 0 32 32">
<title>security_closed</title>
<path d="M24 13.984c0-0.128 0-2.272-0.864-4.704-0.48-1.184-1.152-2.464-2.336-3.52-1.152-1.056-2.848-1.792-4.8-1.76-1.952-0.032-3.616 0.704-4.8 1.76-1.76 1.568-2.464 3.648-2.848 5.28-0.352 1.6-0.352 2.848-0.352 2.944h-1.984v16.032h20v-16.032h-2.016zM12 13.76c0.032-0.608 0.224-2.336 0.864-3.648 0.736-1.312 1.376-2.048 3.136-2.112 1.056 0 1.632 0.288 2.144 0.736 0.768 0.672 1.344 1.984 1.6 3.168 0.128 0.608 0.192 1.152 0.224 1.536s0.032 0.544 0.032 0.544h-8c0 0 0-0.032 0-0.224z"></path>
</symbol>
<symbol id="icon-star" viewBox="0 0 32 32">
<title>star</title>
<path d="M32 9.984h-12l-4-9.984-4 9.984h-12l8 10.016-4 12 12-7.008 12 7.008-4-12 8-10.016z"></path>
</symbol>
<symbol id="icon-website" viewBox="0 0 32 32">
<title>website</title>
<path d="M28 13.984h-9.984v2.016h9.984v-2.016zM28 17.984h-9.984v2.016h9.984v-2.016zM24 21.984h-5.984v2.016h5.984v-2.016zM14.016 13.984h-10.016v10.016h10.016v-10.016zM0 5.984v26.016h32v-26.016h-32zM30.016 30.016h-28l0.064-20.032h27.936v20.032z"></path>
</symbol>
</defs>
</svg>
