<?xml version="1.0" encoding="UTF-8"?>
<!-- Created with Inkscape (http://www.inkscape.org/) -->
<svg width="416.95" height="757.31" version="1.0" xmlns="http://www.w3.org/2000/svg" xmlns:cc="http://creativecommons.org/ns#" xmlns:dc="http://purl.org/dc/elements/1.1/" xmlns:rdf="http://www.w3.org/1999/02/22-rdf-syntax-ns#" style="fill:gray; opacity:0.08; stroke:none">
 <g transform="rotate(-14.32 177.05 238.8)">
  <g transform="matrix(2 0 0 2 -483.32 -485.52)" fill-rule="evenodd">
   <path d="m331.43 623.08c5.8473 12.69 12.967 10.105 20.714 0 0 0 1.6071-19.821 1.4286-33.571s-2.3214-1.25-2.1429-21.429 2.8571-59.286 2.8571-59.286v-66.429s0.89286-35.714 0.71429-65.714-1.7857-32.679-1.4286-54.286c0.35714-21.607 1.25-14.464 2.8571-32.143s3.5714-38.571 3.5714-38.571c-3.6264-11.919-38.282-11.482-42.143 11.429 0 0 2.1429 13.571 2.8572 43.571s-1.7857 41.25 0 76.429 5.1786 31.429 7.1428 64.286c1.9643 32.857 0.71429 67.143 0.71429 67.143l2.8571 66.429z"/>
   <path d="m379.29 288.79c-24.643 1.9643-60.714 7.1429-60.714 7.1429-116.48 21.613-87.826 123.94 2.1429 100.71l35-2.1429c47.758-11.638 55.838 52.447 0 44.286l-30.714 2.1429c-84.087 20.796-75.336 99.208 2.1429 88.571l27.143-4.2857c59.567-1.3042 26.571 40.447-2.1428 43.571 0 0-8.2143-0.53571-21.429 7.1429s-31.429 23.571-31.429 23.571c-13.724 18.193-2.4058 14.918 10 10.714 0 0 9.6429-8.9286 20.714-14.286s23.571-7.1429 23.571-7.1429c67.646-23.436 75.571-78.753 2.1429-80.714l-29.286 1.4286c-22.812 8.4505-69.466-27.106 0-45l30.714-0.71429c86.682-2.9636 88.48-86.164-2.1429-90.714l-36.429 2.8571c-40.5 18.544-83.061-31.87 0.71428-54.286 0 0 20.893 0.35714 37.143 0 16.25-0.35715 13.214-2.5 27.857-1.4286s20.697 10.899 30.714 5.7143c23.626-12.228 43.004-12.966 2.1429-37.857-10.905-6.6428-13.214-1.25-37.857 0.71428z"/>
  </g>
 </g>
</svg>
