<?xml version="1.0" encoding="UTF-8" standalone="no"?>
<!-- Created with Inkscape (http://www.inkscape.org/) -->

<svg
   xmlns:dc="http://purl.org/dc/elements/1.1/"
   xmlns:cc="http://creativecommons.org/ns#"
   xmlns:rdf="http://www.w3.org/1999/02/22-rdf-syntax-ns#"
   xmlns:svg="http://www.w3.org/2000/svg"
   xmlns="http://www.w3.org/2000/svg"
   xmlns:sodipodi="http://sodipodi.sourceforge.net/DTD/sodipodi-0.dtd"
   xmlns:inkscape="http://www.inkscape.org/namespaces/inkscape"
   version="1.0"
   width="144.5679"
   height="385.57178"
   id="svg7"
   sodipodi:docname="Esclapius_stick_1.svg"
   inkscape:version="0.92.4 (5da689c313, 2019-01-14)">
  <metadata
     id="metadata13">
    <rdf:RDF>
      <cc:Work
         rdf:about="">
        <dc:format>image/svg+xml</dc:format>
        <dc:type
           rdf:resource="http://purl.org/dc/dcmitype/StillImage" />
      </cc:Work>
    </rdf:RDF>
  </metadata>
  <defs
     id="defs11" />
  <sodipodi:namedview
     pagecolor="#ffffff"
     bordercolor="#666666"
     borderopacity="1"
     objecttolerance="10"
     gridtolerance="10"
     guidetolerance="10"
     inkscape:pageopacity="0"
     inkscape:pageshadow="2"
     inkscape:window-width="1440"
     inkscape:window-height="876"
     id="namedview9"
     showgrid="false"
     inkscape:zoom="0.58271605"
     inkscape:cx="-114.72742"
     inkscape:cy="191.858"
     inkscape:window-x="0"
     inkscape:window-y="24"
     inkscape:window-maximized="1"
     inkscape:current-layer="svg7" />
  <path
     d="M 19.233884,29.846629 C 8.6260141,36.884946 -0.97773389,51.19108 3.7147051,69.425353 7.6385601,84.676677 27.601763,97.7719 43.842982,104.07455 36.688162,82.14508 39.20121,86.347189 37.313538,78.030249 31.164877,75.091271 26.773954,71.848422 25.188966,67.616981 23.410339,62.872489 24.449099,56.720965 28.799632,53.729346 c 0.710821,-0.489505 1.508188,-0.875208 2.399177,-1.176678 5.830384,-0.514043 11.097549,3.53483 15.941742,6.255195 2.882194,1.18941 5.896637,2.118682 8.870026,2.330039 2.238933,0.159324 4.471906,-0.05743 6.582023,-0.93082 3.987609,-1.649787 4.067523,-1.946244 2.303374,-8.376641 4.263989,-0.763321 8.628631,2.34027 6.173652,-8.207054 -1.388682,-5.965156 -9.16971,-15.957858 -25.602603,-18.672964 -9.270476,-1.872064 -18.085787,0.57721 -26.233139,4.896206 z m 40.770131,56.832346 c 0.149427,1.149424 6.415287,24.174895 7.225517,25.982955 7.591512,4.10479 14.719678,10.65946 17.914619,22.30515 4.153476,15.13959 0.09326,24.60768 -5.759258,34.04952 -5.041673,7.54532 -9.665784,15.33277 -13.948482,23.33433 -8.91043,16.92969 -15.503341,34.28152 -10.057162,52.04666 5.305949,17.30691 20.097853,22.18396 34.997791,25.75204 -3.366895,-10.39773 -3.629681,-11.12409 -6.925983,-21.82012 -6.274032,-3.25611 -10.28448,-6.81488 -11.617333,-12.10786 -1.614151,-6.41658 -0.515549,-13.70028 1.930694,-21.07424 2.90734,-8.36461 7.254115,-16.10362 11.511153,-23.83223 2.334282,-3.92125 4.792861,-7.76678 7.248404,-11.61275 8.821895,-13.80907 15.951865,-34.04891 10.766555,-54.18557 C 97.278763,102.17877 77.143196,92.82653 60.004015,86.678975 Z M 104.58217,257.08199 c 0.71203,2.23631 3.70706,10.9932 6.03839,18.46671 26.46512,9.01802 18.29153,32.75836 9.34116,51.29389 -2.01691,4.14271 -4.88031,7.78896 -7.69272,11.4106 -9.08533,11.68165 -20.951051,20.55167 -33.653466,27.93018 16.351457,-6.81183 27.422766,-14.85299 35.259816,-22.31119 3.24454,-2.58482 5.73904,-5.7599 8.30214,-8.95302 3.68494,-4.49925 6.24479,-8.39093 8.27705,-11.05244 6.28279,-8.23259 15.2818,-25.51648 10.00474,-37.70942 -7.72227,-17.88804 -21.34371,-23.35191 -35.87711,-29.07531 z"
     style="fill:none;stroke:#000000;stroke-width:5;stroke-linecap:round;stroke-linejoin:round"
     id="path2"
     inkscape:connector-curvature="0" />
  <path
     d="m 59.998083,86.671529 c 0.149427,1.149424 6.414024,24.180681 7.224254,25.988751 0.81023,1.80806 1.603631,3.62282 2.10022,5.48582 0.787385,2.94565 0.226854,6.73083 0.773384,9.55071 1.874251,9.65518 4.106115,3.37076 6.034529,8.51383 1.519914,4.05849 -1.104662,7.27862 -0.03712,10.17955 3.126615,8.49759 2.513039,14.79948 3.251228,22.29424 l -14.02906,23.02928 c -1.366215,-9.45133 -5.741357,-14.18446 -9.357267,-17.83591 -5.067281,-5.11668 -4.855725,-10.12097 -8.626629,-15.12356 -4.164344,-5.52201 -7.237882,-8.59121 0.737355,-13.62561 4.110415,0.22658 4.926015,5.25187 8.677518,4.94127 4.215428,-2.37283 -5.738867,-24.06312 -12.893686,-45.9926 C 36.697989,82.147828 39.199888,86.342367 37.312215,78.025427 35.424542,69.708487 32.211931,61.589126 28.813788,53.738424 l 9.4e-5,0.0041 c 8.396798,-5.167914 18.118554,8.580031 27.215327,7.406598 1.808995,7.206176 2.836551,14.25136 3.528308,22.072018 0.101985,1.154144 0.291139,2.300965 0.440566,3.450389 z M 85.363046,191.16157 c -0.03149,0.0525 -0.05597,0.101 -0.08747,0.15361 -2.582657,4.31355 -9.005051,16.34246 -11.475683,23.72528 3.0919,11.02907 7.004916,24.70233 9.651169,33.28905 3.296302,10.69603 3.559088,11.42239 6.925983,21.82012 3.366896,10.39773 6.843919,20.87749 10.465645,31.76941 4.07881,12.26698 7.98192,24.38774 11.42631,36.33415 2.78409,-3.57969 5.61518,-7.10816 7.69272,-11.4106 -2.40173,-9.66912 -3.8087,-19.24536 -4.56713,-29.75832 -0.47738,-6.64239 -2.44269,-14.06207 -4.77402,-21.53557 -2.33134,-7.47351 -5.32637,-16.2304 -6.0384,-18.46671 -0.71203,-2.23631 -1.37921,-4.4367 -1.95306,-6.52841 -2.37319,-8.65037 -3.704968,-13.65407 -2.880218,-21.60146 0.486288,-4.69081 5.146278,-16.03778 -4.465935,-15.33359 -0.561032,1.99554 -2.160075,3.27001 -2.609566,5.25258 -3.681892,-8.86372 -5.212656,-18.36809 -7.31034,-27.70954 z m 36.814444,143.75759 c -3.68495,4.49924 -0.46509,1.49481 -8.30214,8.95302 3.67856,13.34426 6.66095,26.43389 8.42122,39.20008 9.81591,-16.11627 9.52507,-20.10754 1.99293,-41.6359 -0.77065,-2.20052 -1.45607,-4.36817 -2.11201,-6.5172 z M 45.472011,24.943092 C 44.546844,18.246955 47.012302,9.6541936 43.416284,3.6274256 c -4.677477,-3.8092181 -8.106219,3.20382 -11.727663,3.217429 -7.140707,0.029255 -6.577743,-4.703325 -14.07753,-3.866284 -6.482482,0.72386 -8.3588619,0.665203 -2.902798,14.6261714 1.636142,4.187336 3.082883,8.228575 4.522028,12.234569 3.316881,-2.200974 6.730316,-3.70983 9.837609,-4.376688 6.163646,-1.32285 11.606339,-1.312449 16.404081,-0.519531 z"
     style="fill:none;stroke:#000000;stroke-width:5;stroke-linecap:round;stroke-linejoin:round"
     id="path4"
     inkscape:connector-curvature="0" />
  <ellipse
     cx="39.339508"
     cy="49.496788"
     rx="4.1199999"
     ry="4.3499999"
     id="eye"
     transform="rotate(-15.341372)" />
</svg>
